<svg width="187" height="167" viewBox="0 0 187 167" fill="none" xmlns="http://www.w3.org/2000/svg">
<path d="M186.101 42.0001L164.408 3.46363C162.549 0.159086 158.417 -0.981077 155.183 0.920117C151.947 2.81947 150.833 7.03872 152.692 10.3433L173.486 47.2822V77.509H129.876V73.7553C129.876 67.0966 126.367 60.8914 120.722 57.5621L102.654 46.9076C99.8747 45.2687 96.7088 44.4019 93.5005 44.4019C90.2921 44.4019 87.1262 45.2678 84.3476 46.9076L66.278 57.5621C60.6317 60.8914 57.1252 67.0966 57.1252 73.7553V77.509H13.5144V47.2831L34.3085 10.3442C36.168 7.03964 35.0535 2.82039 31.8182 0.921037C28.5856 -0.979237 24.4538 0.159088 22.5924 3.46455L0.899155 42.0001C0.309929 43.0473 0 44.2335 0 45.4399V83.3542V121.268C0 122.475 0.309929 123.661 0.899155 124.707L22.5924 163.244C23.8429 165.464 26.117 166.707 28.4567 166.707C29.5992 166.707 30.7578 166.411 31.8182 165.787C35.0535 163.888 36.168 159.669 34.3085 156.364L13.5144 119.425V91.3124H28.6306V100.35C28.6306 104.162 31.6551 107.252 35.3878 107.252C39.1205 107.252 42.145 104.162 42.145 100.35V91.3124H57.1252V95.0651C57.1252 101.723 60.6326 107.929 66.278 111.258L84.3467 121.913C87.1253 123.552 90.2912 124.419 93.4996 124.419C96.7079 124.419 99.8738 123.553 102.653 121.913L120.721 111.258C126.367 107.929 129.875 101.725 129.875 95.0651V91.3124H144.854V100.35C144.854 104.162 147.879 107.252 151.611 107.252C155.344 107.252 158.368 104.162 158.368 100.35V91.3124H173.485V119.426L152.692 156.365C150.832 159.67 151.946 163.889 155.182 165.788C156.244 166.412 157.401 166.708 158.543 166.708C160.883 166.708 163.158 165.465 164.408 163.245L186.1 124.708C186.689 123.661 186.999 122.475 186.999 121.269V83.3552V45.4399C187 44.2335 186.69 43.0473 186.101 42.0001ZM111.575 80.5972H75.6426C71.9099 80.5972 68.8854 77.508 68.8854 73.6955C68.8854 69.883 71.9099 66.7938 75.6426 66.7938H111.575C115.308 66.7938 118.333 69.883 118.333 73.6955C118.333 77.508 115.307 80.5972 111.575 80.5972Z" fill="#E34141"/>
</svg>

