<svg width="304" height="304" viewBox="0 0 304 304" fill="none" xmlns="http://www.w3.org/2000/svg">
<g clip-path="url(#clip0)">
<path d="M88.3456 142.852L142.103 142.755C141.001 146.205 140.401 149.878 140.409 153.69C140.416 157.457 141.009 161.132 142.131 164.618L88.3749 164.715C87.9244 161.115 87.6668 157.47 87.6602 153.785C87.6529 150.118 87.8981 146.469 88.3456 142.852ZM196.967 153.589C196.957 148.038 194.786 142.824 190.854 138.907C186.923 134.99 181.7 132.838 176.151 132.848C164.693 132.869 155.389 142.207 155.409 153.664C155.419 159.214 157.59 164.429 161.521 168.346C165.453 172.264 170.676 174.416 176.226 174.406C187.682 174.384 196.987 165.046 196.967 153.589ZM84.2981 73.5587C84.2989 73.5693 84.2983 73.6676 84.2983 73.6775C84.304 76.8397 85.5418 79.8108 87.7817 82.0427C90.0223 84.2752 92.9986 85.5017 96.1601 85.4953L109.599 85.4712L109.689 85.5679L51.7186 108.883C48.8739 110.027 47.012 112.788 47.0168 115.855L47.0385 127.927L151.53 127.738C157.937 121.632 166.595 117.864 176.123 117.847C185.681 117.83 194.673 121.535 201.443 128.281C208.213 135.027 211.95 144.005 211.968 153.563C212.003 173.29 195.982 189.369 176.253 189.406C167.002 189.422 158.289 185.943 151.599 179.602L47.133 179.79L47.1547 191.862C47.1602 194.926 49.0305 197.679 51.8815 198.816L134.438 231.675C141.433 235.421 148.923 238.231 156.74 239.984C158.965 240.484 161.295 239.944 163.074 238.518C164.482 237.388 165.423 235.8 165.752 234.057L186.913 234.019C187.247 235.76 188.196 237.346 189.606 238.469C191.391 239.89 193.723 240.421 195.946 239.914C215.209 235.52 232.682 224.587 245.146 209.129C257.803 193.434 264.751 173.666 264.716 153.468C264.673 129.834 255.429 107.63 238.687 90.9465C238.685 90.9451 238.686 90.9458 238.685 90.9444C226.806 79.1082 211.919 70.9205 195.636 67.2671C193.41 66.7676 191.08 67.3085 189.301 68.7344C187.893 69.8633 186.953 71.4518 186.624 73.1947L165.464 73.2334C165.129 71.491 164.186 69.9059 162.769 68.7813C160.986 67.3611 158.653 66.83 156.43 67.3375C149.757 68.8598 143.307 71.1808 137.199 74.192L127.736 64.0613C127.674 63.995 127.61 63.9286 127.547 63.8651C126.065 62.3885 124.107 61.663 122.152 61.6891C122.096 61.6878 122.041 61.6808 121.984 61.6809L96.1174 61.7281C92.9552 61.7338 89.9827 62.9701 87.7501 65.2107C85.5175 67.4513 84.2925 70.4276 84.2981 73.5587Z" fill="#00D1FF"/>
</g>
<defs>
<clipPath id="clip0">
<rect width="213.563" height="213.563" fill="white" transform="translate(152.278 303.018) rotate(-135.103)"/>
</clipPath>
</defs>
</svg>
