<svg width="900" height="900" viewBox="0 0 900 900" fill="none" xmlns="http://www.w3.org/2000/svg">
<path d="M145.547 500.906C145.547 500.906 135 502.875 131.484 480.093C127.969 457.312 123.187 359.015 127.266 355.359C136.6 351.309 146.367 348.337 156.375 346.5C156.375 346.5 156.375 240.469 193.922 179.719C231.469 118.969 269.719 94.0779 343.687 73.5467C413.979 56.1787 487.606 57.6337 557.156 77.7654C619.172 94.3592 679.5 142.734 696.094 201.515C707.078 245.52 713.673 290.506 715.781 335.812C728.132 338.336 740.063 342.597 751.219 348.469C753.609 353.109 757.266 476.718 751.219 480.375C747.534 482.601 743.288 483.724 738.984 483.609C738.984 483.609 849.516 736.734 845.719 750.797C841.922 764.859 663.891 840.234 422.297 838.547C180.703 836.859 57.5156 762.187 53.1562 752.343C48.7968 742.5 145.547 500.906 145.547 500.906Z" fill="#1D1D1B"/>
<path d="M186.187 392.624C186.187 392.624 177.75 285.046 204.328 225.14C228.511 176.656 266.474 136.394 313.453 109.406C342.661 97.6884 373.58 90.8015 405 89.015C405 91.4056 414.422 233.015 414.281 252.281C413.025 271.205 410.346 290.008 406.266 308.531C406.266 308.531 350.016 274.078 291.516 289.124C266.387 295.547 243.406 308.505 224.907 326.684C206.408 344.862 193.049 367.612 186.187 392.624V392.624Z" fill="#6A6A6A"/>
<path d="M423.422 311.906C423.422 311.906 431.016 260.156 431.156 243.14C431.297 226.125 419.766 90.9842 422.719 89.1561C431.406 87.0557 440.469 87.0557 449.156 89.1561C450 91.4061 464.062 253.125 467.015 275.062C469.771 286.286 471.047 297.821 470.812 309.375C464.222 314.809 456.063 317.988 447.534 318.443C439.004 318.899 430.553 316.608 423.422 311.906V311.906Z" fill="#6A6A6A"/>
<path d="M489.375 301.5C480.056 258.177 473.481 214.308 469.688 170.156C467.297 119.25 462.516 90.5626 468.844 88.1719C475.172 85.7813 562.5 90.4219 615.375 136.547C668.25 182.672 672.469 215.438 668.953 216.141C665.438 216.844 633.516 202.078 631.828 205.313C630.141 208.547 629.719 216.563 632.672 218.25C635.625 219.938 670.5 233.719 672.328 235.969C674.188 240.475 675.463 245.201 676.125 250.031C662.602 243.363 648.476 237.995 633.938 234C632.25 236.391 630.703 246.938 633.938 248.063C637.172 249.188 676.125 266.344 676.125 266.344L677.531 277.453C677.531 277.453 637.875 260.859 635.344 261.422C632.813 261.984 630.281 272.672 633.375 274.359C636.469 276.047 677.812 292.078 678.937 294.328C680.062 296.578 684.703 313.594 684.703 313.594L660.938 305.438C660.938 305.438 665.297 317.672 667.688 318.797C670.078 319.922 685.969 324.844 686.109 329.484C687.877 345.035 688.863 360.664 689.063 376.313C687.234 376.313 658.125 285.609 615.656 276.75C573.187 267.891 489.375 301.5 489.375 301.5Z" fill="#6A6A6A"/>
<path d="M315.562 313.312C346.641 313.312 416.672 347.765 452.812 339.328C488.953 330.89 549.703 300.093 586.687 299.671C623.672 299.249 643.781 334.546 676.125 410.062C708.469 485.578 776.391 653.765 774.562 653.765C772.734 653.765 660.094 402.187 638.156 369.281C616.219 336.374 600.75 327.093 555.75 330.328C510.75 333.562 459.984 344.39 459.562 350.296C459.141 356.203 459.562 451.124 466.312 459.14C473.062 467.156 509.344 469.265 553.219 466.453C597.094 463.64 623.531 461.812 634.5 457.453C642.802 453.523 650.712 448.814 658.125 443.39L768.094 674.999C755.116 662.15 741.305 650.171 726.75 639.14C723.797 639.14 722.391 650.39 724.078 651.515C725.766 652.64 775.687 698.343 780.328 703.546C789.4 714.873 797.007 727.3 802.969 740.531C801.281 742.921 796.781 748.265 793.687 747.14C790.594 746.015 723.375 666.843 717.891 665.156C712.406 663.468 711.703 673.453 711.703 673.453C711.703 673.453 784.547 750.796 782.859 752.624C777.666 755.678 772.262 758.356 766.687 760.64C766.687 760.64 705.797 690.328 703.406 691.312C701.016 692.296 693.703 699.749 697.781 702.562C718.16 721.745 737.278 742.226 755.016 763.874C749.589 766.299 743.937 768.183 738.141 769.499C722.281 751.153 705.427 733.689 687.656 717.187C684.141 717.187 678.937 722.671 680.766 724.921C682.594 727.171 727.594 771.187 725.906 773.578C720.768 776.111 715.263 777.819 709.594 778.64C709.594 778.64 674.719 741.937 672.328 742.078C669.937 742.218 661.922 746.437 664.875 750.515C667.828 754.593 698.484 781.312 696.656 782.578C692.084 783.995 687.367 784.891 682.594 785.249C680.906 785.249 654.469 757.124 651.375 757.124C648.281 757.124 640.266 759.796 642.094 763.734C643.922 767.671 667.969 788.906 665.016 790.734C662.062 792.562 592.312 814.218 443.391 811.968C294.469 809.718 234.703 785.953 234.703 785.953C215.975 767.487 196.158 750.159 175.359 734.062C170.016 734.062 164.391 742.499 166.781 744.187C180.981 755.472 194.417 767.686 207 780.749C204.609 780.749 161.016 767.812 146.25 765.281C135.231 764.085 124.462 761.192 114.328 756.703C114.328 755.015 198.703 553.64 202.5 554.062C206.297 554.484 263.391 696.093 263.391 696.093C261.779 703.779 262.528 711.772 265.54 719.025C268.551 726.277 273.684 732.45 280.266 736.734C288.157 740 296.701 741.382 305.22 740.772C313.739 740.162 321.998 737.576 329.344 733.218L547.453 734.343C549.141 734.343 584.859 752.203 599.344 724.921C613.828 697.64 605.391 687.234 605.391 687.234C605.391 687.234 661.641 528.749 658.266 525.374C650.393 522.359 642.08 520.649 633.656 520.312C633.656 520.312 594.984 665.437 591.469 665.578C587.953 665.718 573.75 660.937 567.844 660.937C564.526 660.571 561.177 660.571 557.859 660.937L480.937 553.64C480.937 553.64 496.406 469.265 434.953 469.265C373.5 469.265 390.656 553.64 390.656 553.64C390.656 553.64 376.594 552.796 362.531 574.874C348.469 596.953 314.859 663.328 314.859 663.328C307.943 662.89 301.009 663.847 294.469 666.14C285.187 669.937 279.422 672.89 279.422 672.89C279.422 672.89 229.641 556.312 230.766 553.921C231.891 551.531 242.297 523.687 247.641 523.687C252.984 523.687 288.844 529.171 302.906 529.312C316.969 529.453 319.219 527.765 319.781 525.374C320.344 522.984 323.578 514.124 321.328 514.265C319.078 514.406 249.047 506.671 243.703 505.546C238.359 504.421 228.656 536.343 224.016 537.609C219.375 538.874 205.312 540.984 207 537.609C208.687 534.234 237.516 465.328 239.203 465.89C240.891 466.453 345.094 480.937 376.031 474.89C406.969 468.843 414.984 459.281 419.203 444.515C423.583 413.83 424.809 382.778 422.859 351.843C395.033 340.865 365.561 334.638 335.672 333.421C296.437 332.015 270 331.453 253.125 358.874C236.25 386.296 102.375 748.687 99.9843 749.39C95.4995 748.654 91.1429 747.281 87.0468 745.312C87.0468 745.312 156.094 548.437 182.391 474.609C208.687 400.781 231.187 311.906 315.562 313.312Z" fill="#6A6A6A"/>
<path d="M404.437 566.718C414.968 567.535 425.547 567.535 436.078 566.718L468.281 565.312C468.281 565.312 462.797 701.437 468.281 702.421C473.765 703.406 477.703 706.359 477.703 701.577C477.703 696.796 475.031 592.593 478.547 591.89C482.062 591.187 489.094 613.265 489.094 613.265C489.094 613.265 487.265 703.546 489.094 704.109C490.922 704.671 501.469 707.906 500.906 704.953C500.344 701.999 501.609 638.156 501.609 638.156L521.719 669.937L510.609 670.781C510.609 670.781 509.484 698.906 513 698.906C516.323 699.151 519.661 699.151 522.984 698.906C524.672 698.906 524.531 715.218 524.531 715.218C524.531 715.218 422.437 712.406 386.719 713.249C351 714.093 348.047 714.796 348.047 714.796C346.874 705.316 344.266 696.07 340.312 687.374L331.734 669.374C331.734 669.374 399.234 568.546 404.437 566.718Z" fill="#6A6A6A"/>
<path d="M429.891 578.39C433.828 576.984 441 577.546 441.703 579.796C442.406 582.046 447.469 698.062 444.094 701.015C440.719 703.968 431.859 703.125 431.719 701.015C431.578 698.906 428.203 578.953 429.891 578.39Z" fill="#1D1D1B"/>
<path d="M404.156 580.219C407.109 578.953 414 577.687 415.266 580.219C416.531 582.75 422.859 701.297 420.609 702C418.359 702.703 408.375 704.672 408.375 702C408.375 699.328 404.156 580.219 404.156 580.219Z" fill="#1D1D1B"/>
<path d="M379.687 630C380.39 628.031 391.922 624.375 391.922 626.765C391.922 629.156 397.265 699.328 394.875 700.593C391.232 701.409 387.49 701.694 383.765 701.437C383.765 701.437 378.422 632.812 379.687 630Z" fill="#1D1D1B"/>
<path d="M355.078 658.125C355.078 655.734 363.094 649.125 364.219 650.812C367.412 666.774 368.593 683.073 367.734 699.328C364.104 700.343 360.383 701.003 356.625 701.297C356.625 701.297 354.516 660.937 355.078 658.125Z" fill="#1D1D1B"/>
<path d="M579.797 500.906C582.469 499.641 619.031 498.797 644.203 495.844C652.419 493.87 660.797 492.646 669.234 492.188C672.188 492.188 675.984 504.281 674.297 506.25C654.525 511.981 634.12 515.24 613.547 515.953C593.016 515.953 581.344 515.953 581.344 515.953C581.344 515.953 574.594 503.297 579.797 500.906Z" fill="#1D1D1B"/>
<path d="M590.625 539.86C595.406 538.594 610.453 561.094 610.453 561.094C610.453 561.094 607.781 572.344 604.828 570.094C597.024 563.202 589.955 555.521 583.734 547.172C582.609 544.078 587.812 540.563 590.625 539.86Z" fill="#1D1D1B"/>
<path d="M568.266 558C572.344 556.594 600.469 583.031 599.484 586.125C598.5 589.219 597.375 594.984 595.547 594.422C583.348 585.502 571.917 575.577 561.375 564.75C560.812 561.656 566.578 558.562 568.266 558Z" fill="#1D1D1B"/>
<path d="M554.203 578.812C554.203 578.812 590.062 606.937 588.937 611.437C587.741 614.862 586.035 618.085 583.875 621C583.875 621 542.672 587.39 544.359 584.437C546.047 581.484 551.812 580.64 554.203 578.812Z" fill="#1D1D1B"/>
<path d="M203.203 680.625C206.016 681.609 242.719 713.109 242.859 718.875C243 724.64 241.312 727.734 239.625 727.734C225.105 717.53 211.335 706.298 198.422 694.125C197.578 691.875 200.25 679.5 203.203 680.625Z" fill="#1D1D1B"/>
<path d="M192.234 710.156C192.234 710.156 246.094 754.594 246.094 757.547C246.094 760.5 244.547 766.969 242.859 766.969C222.71 753.992 203.535 739.563 185.484 723.797C184.922 720.281 192.234 710.156 192.234 710.156Z" fill="#1D1D1B"/>
<path d="M228.797 239.063C226.406 235.688 234.984 206.719 250.875 184.078C266.766 161.438 281.672 148.781 288.14 150.328C294.609 151.875 298.969 158.906 296.578 161.859C280.278 171.375 267.014 185.322 258.328 202.078C247.219 228.094 250.594 244.266 247.078 245.109C240.443 245.45 233.921 243.292 228.797 239.063V239.063Z" fill="#1D1D1B"/>
<path d="M630.703 186.047C634.781 185.343 651.938 190.265 653.203 193.64C654.469 197.015 657 205.312 651.656 204.187C644.781 202.253 638.059 199.809 631.547 196.875C629.156 196.031 627.188 186.75 630.703 186.047Z" fill="#1D1D1B"/>
</svg>
